<svg width="686" height="363" viewBox="0 0 686 363" fill="none" xmlns="http://www.w3.org/2000/svg">
<path d="M337.306 14.522H348.024L356.398 15.1919L369.127 17.5366L375.156 19.2114L383.865 22.2261L387.215 23.9009L391.234 25.5757L395.924 28.2554L403.963 33.2798L407.982 36.2944L412.337 39.979L417.026 43.9985L421.046 48.0181L423.391 50.6978L427.075 55.0522L430.76 60.0767L434.109 65.436L437.124 70.7954L439.804 75.8198L443.153 83.8589L446.168 93.5728L447.843 101.947L448.178 104.961L447.508 105.296H436.454L435.114 99.937L432.77 91.563L431.095 86.5386L427.41 78.4995L423.726 71.8003L420.376 66.7759L417.026 62.0864L413.342 57.7319L409.322 53.3774L406.978 51.0327L403.293 48.0181L398.938 44.6685L395.589 42.3237L389.56 38.6392L384.535 35.9595L376.831 32.6099L366.112 29.2603L358.408 27.9204L349.029 26.9155H338.646L328.932 27.9204L321.562 29.2603L312.519 31.9399L308.499 33.2798L298.45 38.3042L293.761 40.9839L289.406 43.9985L284.382 47.6831L279.692 52.0376L277.013 54.3823L274.333 57.062L270.648 61.7515L267.299 66.106L263.614 71.8003L259.595 79.1694L256.245 86.5386L254.235 91.8979L251.556 102.617L250.551 105.296H239.162L238.827 103.957L240.502 96.2524L243.517 85.5337L247.536 75.8198L250.886 69.1206L252.896 65.771L255.24 62.0864L259.595 56.0571L262.274 52.7075L265.289 49.3579L268.974 45.3384L272.323 41.9888L275.003 39.644L280.362 35.2896L286.392 31.27L292.756 27.5854L298.45 24.5708L305.149 21.5562L312.184 19.2114L317.208 17.8716L325.582 16.1968L330.271 15.1919L337.306 14.522Z" fill="#BFBFBF"/>
<path d="M240.502 140.132H252.226L252.896 140.467L254.57 147.167L257.585 155.206L260.935 162.575L265.289 170.279L269.644 176.308L273.328 180.663L276.343 184.347L282.037 190.042L285.722 193.056L291.751 197.411L296.44 200.425L302.47 203.775L309.839 207.125L319.888 210.474L334.626 213.154L337.641 213.489H350.369L363.768 211.479L371.137 209.804L375.826 208.129L381.186 206.12L388.22 202.77L394.584 199.085L400.278 195.066L404.298 192.051L406.978 189.707L408.987 188.032L410.662 186.357L414.682 182.002L418.366 177.313L422.721 171.284L425.735 166.259L428.75 160.9L431.765 153.866L434.779 144.822L436.119 140.132H448.178L447.508 143.817L445.833 150.516L442.483 159.895L438.799 168.269L436.119 172.958L431.43 180.328L428.08 184.682L424.396 189.372L420.041 193.726L418.031 196.071L415.352 198.416L412.002 201.43L407.312 205.115L402.288 208.464L396.929 211.814L393.914 213.489L389.225 215.833L383.865 218.178L378.171 220.188L374.486 221.528L362.093 224.208L355.394 225.212L351.374 225.547H336.301L327.257 224.542L316.873 222.198L311.849 220.858L305.819 218.513L300.46 216.168L294.096 213.154L288.401 209.804L283.377 206.455L279.022 203.105L274.668 199.42L270.313 195.401L265.959 191.046L259.93 183.677L253.9 174.968L251.221 169.944L248.541 164.584L245.861 158.89L242.847 150.516L240.502 140.802V140.132Z" fill="#BFBFBF"/>
<path d="M342.33 52.0376L346.015 52.3726L348.694 53.7124L350.369 55.7222L351.709 59.0718V165.254L350.369 168.269L348.694 170.279L345.68 171.954L342.33 172.289L339.985 171.619L336.636 168.939L335.631 166.929L335.296 165.589V58.4019L336.636 55.3872L337.976 53.7124L340.655 52.3726L342.33 52.0376Z" fill="#884FFC"/>
<path d="M293.091 77.4946H297.445L300.125 78.8345L302.47 81.5142L303.475 83.8589L303.81 88.2134L303.475 165.589L301.8 168.939L299.455 170.949L297.445 171.954L294.431 172.289L291.751 171.619L288.401 168.604L287.396 166.929L287.062 165.589V83.8589L288.066 81.1792L290.746 78.4995L293.091 77.4946Z" fill="#884FFC"/>
<path d="M62.9727 259.378L65.9873 260.048L67.6621 262.058L69.002 265.743L70.6768 271.102L72.0166 273.782L74.3613 282.156L75.3662 284.166L76.3711 284.5L77.376 281.486L78.7158 277.131L80.0557 272.107L82.0654 267.417L83.4053 263.063L84.7451 260.718L86.7549 259.713L91.4443 259.378L93.1191 260.048L94.124 261.053L95.4639 266.078L97.8086 283.831L100.153 295.554L100.488 297.564V300.244L99.4834 302.253L97.1387 302.923H93.7891L92.1143 301.918L90.7744 300.244L89.7695 294.884L88.4297 283.161L87.4248 279.811L86.4199 279.476L84.7451 282.491L82.4004 291.87L80.0557 296.559L78.3809 297.564H74.0264L72.0166 296.559L70.0068 294.214L68.667 289.86L67.3271 285.17L65.3174 280.146L64.9824 279.476H63.9775L62.9727 282.491L62.3027 288.185L61.6328 296.224L60.6279 299.574L58.6182 302.588L57.6133 302.923H54.2637L52.2539 302.253L51.249 300.579V298.234L52.9238 286.51L54.2637 279.476L55.2686 267.417L56.2734 262.728L57.6133 260.718L59.958 259.713L62.9727 259.378Z" fill="#884FFC"/>
<path d="M389.225 77.4946H393.914L395.924 78.4995L397.934 80.1743L399.273 82.854L399.608 83.8589V143.817L398.269 147.167L396.594 148.506L393.579 150.181H389.225L385.875 148.171L384.2 146.162L383.195 142.142V85.1987L384.2 81.5142L386.545 78.8345L389.225 77.4946Z" fill="#884FFC"/>
<path d="M528.233 258.374H531.918L537.947 260.048L540.962 261.723L545.316 265.408L548.666 269.762L550.006 272.107L551.011 277.131V284.5L549.671 290.865L547.326 294.884L543.307 298.569L537.947 301.249L533.928 302.588L531.918 302.923H526.224L522.204 301.918L516.51 299.239L512.825 295.554L510.146 291.2L508.471 286.51L507.801 283.496V277.801L509.476 272.107L511.82 268.087L514.5 264.738L518.185 262.058L522.539 260.048L528.233 258.374ZM528.568 268.422L525.554 269.427L522.204 271.437L519.859 273.782L518.185 277.131L517.515 281.151L518.52 285.84L520.194 289.19L522.874 291.535L526.224 292.875L527.898 293.209H533.258L536.607 291.87L539.957 288.52L541.297 285.505L541.632 283.831V279.141L540.627 275.122L538.617 272.107L535.603 270.097L532.923 268.757L528.568 268.422Z" fill="#BFBFBF"/>
<path d="M312.854 259.378H331.276L335.631 260.718L339.315 263.063L341.325 264.738L343.335 268.757L344.34 272.442V275.457L342.665 281.151L340.655 284.166L338.311 286.175L336.636 287.515L336.971 289.86L338.98 292.205L343.335 294.214L345.345 295.889L346.015 297.564L345.68 299.909L344.34 301.583L343 302.253H340.32L335.631 300.579L332.616 298.569L327.927 293.209L323.237 290.865L321.897 290.53L321.228 290.865L320.893 291.87L320.558 297.564L319.553 300.914L317.543 302.588H313.523L311.849 301.918L310.509 299.574L310.174 297.899V292.205L310.509 287.515V274.117L310.174 266.078L311.179 261.053L312.854 259.378ZM321.562 268.757L319.888 270.432V274.452L320.558 279.811L320.893 280.816L321.897 281.151H329.267L332.616 279.141L333.956 276.796L334.291 273.782L333.286 271.102L330.271 269.092L328.932 268.757H321.562Z" fill="#884FFC"/>
<path d="M562.734 259.378H580.822L585.512 260.718L589.196 263.063L591.541 265.073L593.216 269.092L593.886 271.772V276.126L592.546 281.151L590.871 283.831L588.191 286.175L586.517 287.515L586.852 289.86L589.196 292.54L593.216 294.214L595.561 296.894V299.909L592.881 302.253H590.201L585.847 300.579L582.497 298.569L580.152 295.554L577.473 292.875L573.453 290.865H570.773L570.438 291.87L570.104 297.564L569.434 300.579L568.094 302.253L567.089 302.588H563.739L561.729 301.918L560.39 299.239V264.068L561.06 261.053L562.734 259.378ZM571.443 268.757L570.104 269.427L569.434 271.772L570.104 279.476L570.773 280.816L571.778 281.151L577.808 281.486L580.822 280.481L583.167 278.471L584.172 276.796L584.507 273.447L583.502 271.437L580.487 269.092L579.147 268.757H571.443Z" fill="#BFBFBF"/>
<path d="M382.19 259.378H399.943L403.963 260.383L408.317 262.728L411.332 265.743L412.672 269.427L413.342 272.107V275.792L412.002 281.151L409.992 284.166L407.647 286.175L405.973 287.18L405.638 288.52L406.643 290.53L409.322 292.875L412.337 294.214L414.682 296.224L415.017 296.894V299.574L413.342 301.583L412.002 302.253H409.322L404.298 300.244L401.618 298.234L399.273 295.554L397.599 293.544L392.574 290.865H390.564L389.56 292.54L389.225 299.574L387.885 301.918L386.545 302.588H383.195L381.186 301.918L380.181 300.579L379.846 299.574V263.733L380.516 261.053L382.19 259.378ZM390.564 268.757L388.89 270.432V273.782L389.225 278.471L389.895 280.481L391.234 281.151L396.929 281.486L399.943 280.481L402.958 277.801L403.963 274.787L403.293 272.107L401.618 270.432L399.273 269.092L398.269 268.757H390.564Z" fill="#BFBFBF"/>
<path d="M607.619 259.713H623.027L627.382 261.053L633.076 264.403L637.096 268.422L639.105 272.777L640.11 277.131L640.445 282.491L639.775 288.52L637.431 293.879L634.751 297.229L632.406 299.574L626.712 302.253L622.692 302.923L606.949 303.258L605.274 302.253L603.935 300.579V265.073L604.604 261.723L606.279 260.048L607.619 259.713ZM616.663 267.083L614.318 268.087L613.648 269.092V294.549L613.983 295.219H620.683L624.032 294.214L627.382 291.87L630.062 286.51L630.396 284.835V277.131L629.057 273.447L627.047 270.767L624.702 268.757L621.353 267.417L619.343 267.083H616.663Z" fill="#BFBFBF"/>
<path d="M294.096 259.378H297.78L300.46 260.383L301.465 262.393V265.073L300.46 267.752L298.115 268.757L281.702 269.092L280.362 270.432V274.787L280.697 275.792L281.702 276.126H291.416L294.096 277.131L295.771 278.806L296.44 280.146L296.105 282.491L294.766 284.835L292.421 285.505L280.697 285.84V293.209H298.785L300.795 294.214L301.465 295.889V299.574L300.46 301.918L299.79 302.588L297.78 302.923L278.353 303.258H271.318L270.313 302.253L269.979 301.583V294.884L270.313 272.442L270.648 260.718L271.318 260.048L273.998 259.713L294.096 259.378Z" fill="#884FFC"/>
<path d="M447.508 259.378H450.857L453.537 260.383L454.542 262.728L454.207 266.413L453.202 268.087L451.192 268.757L434.779 269.092L433.439 270.432L433.104 273.112L433.439 275.792L436.454 276.461L439.134 276.126H443.823L447.173 277.131L448.848 278.806L449.518 279.811V281.821L448.513 283.831L447.173 285.17L445.163 285.505L433.774 285.84V292.205L434.109 292.875L451.527 293.209L453.202 293.879L454.207 294.884L454.542 295.889V299.574L453.537 301.918L452.867 302.588L450.188 302.923L431.095 303.258H424.73L423.726 302.923L423.056 301.583V295.219L423.391 272.777L423.726 260.718L424.73 260.048L428.08 259.713L447.508 259.378Z" fill="#BFBFBF"/>
<path d="M366.782 104.626L370.802 105.296L373.146 106.636L375.156 109.651L375.826 111.661V153.196L374.151 157.215L372.477 158.89L369.462 159.895H365.107L361.758 158.22L360.418 156.545L359.413 153.866L359.078 151.186V113L359.748 109.986L361.088 107.306L364.103 105.296L366.782 104.626Z" fill="#884FFC"/>
<path d="M661.213 258.374H666.237L672.937 260.048L675.616 261.388L677.961 263.733L678.296 266.078L675.281 269.427L674.276 270.097L671.262 269.762L667.577 268.087L664.562 267.417L661.548 267.752L659.203 269.092L658.868 269.762V271.772L660.543 273.782L669.252 277.466L674.611 279.476L677.961 282.156L679.636 285.505L680.641 289.19L680.306 292.54L678.966 295.889L676.621 298.569L674.276 300.579L670.257 302.588L667.577 303.258H661.548L656.523 302.588L649.489 299.239L647.814 297.229L648.149 294.214L650.494 291.535L652.169 290.195L654.179 290.865L658.198 292.875L662.888 293.879L666.572 293.544L669.252 292.205L669.587 291.87V289.86L667.577 287.515L659.203 283.831L653.174 281.151L651.499 279.811L649.489 277.131L648.149 273.447V269.762L649.154 266.748L651.499 264.068L654.849 261.053L658.868 259.043L661.213 258.374Z" fill="#BFBFBF"/>
<path d="M117.571 259.713H128.29L132.645 260.383L135.324 261.723L138.674 264.738L141.354 269.092L142.358 272.442V276.461L141.019 280.481L137.669 284.835L134.319 287.18L132.31 288.185L130.97 288.52L120.586 288.855L118.576 289.19L118.241 299.909L116.901 302.588L116.231 302.923H111.542L109.867 301.918L108.862 300.579L108.527 299.574V292.54L108.192 286.51V264.068L109.197 261.388L110.537 260.383L111.542 260.048L117.571 259.713ZM119.581 268.757L117.906 270.432V280.146L119.581 281.151H126.615L128.96 280.146L131.305 278.471L131.975 277.131L132.31 273.782L131.305 271.437L129.63 270.097L126.615 269.092L119.581 268.757Z" fill="#884FFC"/>
<path d="M24.1172 260.048H27.4668L29.4766 261.723L31.8213 267.752L34.501 273.112L37.5156 279.811L40.1953 287.515L43.21 294.549L44.8848 298.234V300.579L43.5449 302.253L42.2051 302.588H38.5205L36.8457 301.583L35.1709 299.574L33.4961 296.559L32.4912 296.224H21.1025L17.7529 296.559L14.7383 300.579L12.7285 302.253H8.03906L6.36426 300.579V297.899L10.0488 290.195L12.7285 284.166L14.7383 278.136L17.418 272.777L20.0977 266.748L21.7725 262.058L24.1172 260.048ZM24.7871 277.801L21.7725 283.496L21.1025 285.505V287.515L21.7725 288.185H29.4766L30.1465 287.85L29.8115 284.835L26.4619 278.136L24.7871 277.801Z" fill="#884FFC"/>
<path d="M317.208 89.2183H321.228L324.577 90.8931L326.252 92.9028L327.592 95.9175V134.773L325.247 139.462L323.237 140.802L320.893 141.472H317.543L314.193 140.132L312.184 137.788L311.179 135.108V95.5825L312.184 92.9028L315.198 90.2231L317.208 89.2183Z" fill="#884FFC"/>
<path d="M483.349 258.374H486.698L494.067 260.383L497.417 262.058L498.087 263.398L497.752 265.408L495.742 268.087L493.732 269.762L491.388 269.427L487.368 268.422H482.009L479.329 269.427L475.979 272.442L473.97 276.126L473.3 278.471V283.161L474.64 287.515L476.314 289.86L478.994 291.87L483.014 292.875H487.368L491.388 291.87L494.402 290.195H496.747L499.762 292.54L501.102 294.214L501.437 295.554L500.097 297.564L497.752 299.574L491.388 302.253L487.368 302.923H482.679L478.659 302.253L473.635 300.244L470.62 297.899L467.94 295.219L464.926 290.53L463.586 286.845L463.251 284.835V276.126L464.591 271.772L468.275 266.413L471.29 263.063L474.305 261.053L478.324 259.713L482.679 258.708L483.349 258.374Z" fill="#BFBFBF"/>
<path d="M210.69 259.713H237.822L239.497 260.718L240.502 262.393V265.743L239.162 268.422L238.492 268.757L221.744 269.427L220.069 270.432L219.734 271.102V275.457L221.074 276.796H224.424L228.443 276.126H231.458L234.138 277.466L235.478 279.476L235.143 282.491L234.138 284.5L231.793 285.17L221.744 285.505L219.734 285.84L219.399 296.894L218.729 301.249L218.06 302.253L217.055 302.588H211.025L210.021 301.583L209.686 298.904L209.351 283.161L209.686 281.486V276.126L209.351 272.777L209.686 271.437V261.388L210.69 259.713Z" fill="#884FFC"/>
<path d="M152.742 259.713H157.767L159.441 260.718L159.776 261.723V293.209H164.466L169.825 292.875L177.194 293.209L178.869 294.549L179.539 296.894V300.579L178.199 302.588L177.529 302.923H153.077L151.402 301.918L150.062 299.239L149.728 297.564V292.54L150.062 284.5V261.723L151.737 260.048L152.742 259.713Z" fill="#884FFC"/>
<path d="M269.309 107.976H272.658L275.673 108.981L277.348 110.321L279.357 114.005V135.443L277.348 138.792L275.673 140.467L272.658 141.472H269.309L266.964 140.802L263.949 137.788L262.944 135.443V114.005L264.284 110.991L266.629 108.981L269.309 107.976Z" fill="#884FFC"/>
<path d="M413.342 99.6021H418.031L421.046 101.612L423.056 103.957L423.726 106.301V126.399L422.721 129.749L419.371 132.763L416.691 133.433H414.347L411.332 132.428L408.652 129.749L407.647 127.069L407.312 125.059V107.976L407.982 104.292L409.322 102.282L412.672 99.937L413.342 99.6021Z" fill="#884FFC"/>
<path d="M251.891 259.378H256.915L258.59 260.718L258.925 261.723L259.26 267.417V300.244L258.255 301.918L257.585 302.588L255.91 302.923H252.226L250.216 301.918L249.211 299.239V293.209L249.546 288.855V285.17L249.211 278.806V261.723L250.216 260.048L251.891 259.378Z" fill="#884FFC"/>
<path d="M191.263 259.378H195.952L197.292 260.048L197.962 261.388L198.297 264.403V300.579L197.292 302.253L194.947 302.923H191.598L189.923 301.918L188.583 299.909L188.248 298.904V295.554L188.918 289.525V283.831L188.248 276.126L188.583 261.388L190.593 259.713L191.263 259.378Z" fill="#884FFC"/>
<path d="M301.465 324.361L303.81 324.696L304.479 325.701V348.813L303.14 349.818H300.125L298.115 348.813L295.101 344.458L291.751 339.099L289.406 335.415L288.736 335.08V348.478L287.731 349.483L285.722 349.818L283.377 349.148L283.042 348.478L282.707 327.375L283.712 325.366L284.717 324.696L288.401 325.031L289.741 326.371L292.086 330.725L293.426 332.4L295.771 336.419L297.78 338.764L298.45 339.099V327.041L299.79 325.031L301.465 324.361Z" fill="#BFBFBF"/>
<path d="M311.179 325.031H327.927L328.597 326.036V329.385L327.592 330.725L316.538 331.06L316.203 332.735V335.08H322.567L324.912 335.75L325.582 336.754V339.099L324.577 340.774L316.538 341.444V344.793L327.257 345.128L328.932 346.803L328.262 349.818L327.927 350.153L319.553 350.488H310.844L310.174 349.483V345.463L310.509 339.769V334.41L310.844 325.701L311.179 325.031Z" fill="#BFBFBF"/>
<path d="M385.205 325.031H401.618L402.623 326.371V329.05L401.618 330.725L390.899 331.06L390.564 334.41V335.08H396.929L398.938 335.75L399.608 337.089L399.273 339.769L398.269 340.774L390.564 341.109L390.899 344.458L392.909 344.793L401.618 345.128L402.623 346.133V349.148L401.953 350.153L393.579 350.488H384.87L384.535 350.153V331.73L384.87 325.366L385.205 325.031Z" fill="#BFBFBF"/>
<path d="M259.93 325.031H276.343L277.348 326.706V329.05L276.343 330.725L265.624 331.06L265.289 332.065V334.745L271.653 335.08L273.663 335.75L273.998 336.419V339.769L272.993 340.774L268.974 341.109H265.624L265.289 344.793L276.343 345.128L277.348 346.133V349.148L276.678 350.153L268.304 350.488H259.595L259.26 350.153V334.745L259.595 325.366L259.93 325.031Z" fill="#BFBFBF"/>
<path d="M358.408 325.031H362.093L363.098 325.701L363.433 326.706V341.109L364.772 343.789L365.777 344.458L368.457 344.793L370.802 343.789L372.477 341.779L372.812 327.71L373.146 325.366L373.481 325.031H377.501L378.171 325.701L378.506 330.725V339.099L377.836 343.454L376.161 346.803L373.481 349.148L370.802 350.153H365.777L362.093 348.813L360.083 347.138L357.738 343.119L357.403 341.779V326.036L358.408 325.031Z" fill="#BFBFBF"/>
<path d="M333.956 325.031H351.374L352.379 326.036L352.714 326.706V329.05L348.694 334.41L345.68 337.759L342.665 341.444L340.32 344.124L339.985 344.793L351.374 345.128L352.714 346.803L352.379 348.813L351.374 349.818H333.956L332.951 348.813V346.133L334.961 342.784L338.98 337.424L341.325 334.41L344.675 330.39V330.055L334.626 329.72L332.951 327.71L333.956 325.031Z" fill="#BFBFBF"/>
<path d="M439.804 324.696H441.813L443.488 327.375L446.838 334.745L451.527 347.138L451.862 348.813L450.857 349.818H447.508L446.168 348.143L445.498 346.468L444.828 346.133H437.459L436.119 346.468L433.774 349.483L430.76 349.818L429.42 349.148V347.138L432.435 340.439L434.444 335.08L436.119 331.73L438.464 326.371L439.804 324.696ZM439.804 335.08L437.794 340.439V341.109L438.799 341.444H442.818L443.153 341.109L442.818 338.764L440.809 335.08H439.804Z" fill="#BFBFBF"/>
<path d="M249.881 325.031H253.565L254.235 325.701L253.565 329.72L249.546 341.779L247.871 347.473L246.531 349.483L245.861 350.153L243.517 350.488L241.172 349.818L240.167 348.478L237.822 340.104L235.143 332.065L233.803 327.71V325.701L234.473 325.366H238.157L240.167 330.39L242.847 338.429L243.852 341.109L244.521 340.104L247.536 330.39L249.881 325.031Z" fill="#BFBFBF"/>
<path d="M244.521 116.35H246.866L249.881 117.355L251.891 119.03L253.23 121.04L253.9 123.384V126.399L252.561 129.749L249.881 132.093L248.876 132.763L247.201 133.098H243.852L241.172 131.758L239.162 130.083L237.822 127.069V122.714L239.162 119.365L241.507 117.355L244.521 116.35Z" fill="#884FFC"/>
<path d="M438.464 116.35H441.479L444.828 117.69L447.173 120.37L448.178 123.049V126.734L446.503 130.083L443.488 132.428L441.813 133.098H438.129L435.449 131.758L433.104 129.414L432.1 127.069V122.379L433.439 119.7L436.454 117.02L438.464 116.35Z" fill="#884FFC"/>
<path d="M409.322 325.031H413.007L413.677 325.366L414.012 339.099V344.793L418.031 344.124H421.046L424.061 344.458L425.4 345.798V349.148L424.73 350.153H409.322L408.317 348.478V326.371L409.322 325.031Z" fill="#BFBFBF"/>
</svg>
