<?xml version="1.0" encoding="UTF-8"?>
<svg version="1.1" viewBox="0 0 2048 1083" width="686" height="363" xmlns="http://www.w3.org/2000/svg">
<path transform="translate(1007,43)" d="m0 0h32l25 2 38 7 18 5 26 9 10 5 12 5 14 8 24 15 12 9 13 11 14 12 12 12 7 8 11 13 11 15 10 16 9 16 8 15 10 24 9 29 5 25 1 9-2 1h-33l-4-16-7-25-5-15-11-24-11-20-10-15-10-14-11-13-12-13-7-7-11-9-13-10-10-7-18-11-15-8-23-10-32-10-23-4-28-3h-31l-29 3-22 4-27 8-12 4-30 15-14 8-13 9-15 11-14 13-8 7-8 8-11 14-10 13-11 17-12 22-10 22-6 16-8 32-3 8h-34l-1-4 5-23 9-32 12-29 10-20 6-10 7-11 13-18 8-10 9-10 11-12 10-10 8-7 16-13 18-12 19-11 17-9 20-9 21-7 15-4 25-5 14-3z" fill="#030104"/>
<path transform="translate(718,418)" d="m0 0h35l2 1 5 20 9 24 10 22 13 23 13 18 11 13 9 11 17 17 11 9 18 13 14 9 18 10 22 10 30 10 44 8 9 1h38l40-6 22-5 14-5 16-6 21-10 19-11 17-12 12-9 8-7 6-5 5-5 12-13 11-14 13-18 9-15 9-16 9-21 9-27 4-14h36l-2 11-5 20-10 28-11 25-8 14-14 22-10 13-11 14-13 13-6 7-8 7-10 9-14 11-15 10-16 10-9 5-14 7-16 7-17 6-11 4-37 8-20 3-12 1h-45l-27-3-31-7-15-4-18-7-16-7-19-9-17-10-15-10-13-10-13-11-13-12-13-13-18-22-18-26-8-15-8-16-8-17-9-25-7-29z" fill="#020103"/>
<path transform="translate(1022,155)" d="m0 0 11 1 8 4 5 6 4 10v317l-4 9-5 6-9 5-10 1-7-2-10-8-3-6-1-4v-320l4-9 4-5 8-4z" fill="#884FFC"/>
<path transform="translate(875,231)" d="m0 0h13l8 4 7 8 3 7 1 13-1 231-5 10-7 6-6 3-9 1-8-2-10-9-3-5-1-4v-244l3-8 8-8z" fill="#884FFC"/>
<path transform="translate(188,774)" d="m0 0 9 2 5 6 4 11 5 16 4 8 7 25 3 6 3 1 3-9 4-13 4-15 6-14 4-13 4-7 6-3 14-1 5 2 3 3 4 15 7 53 7 35 1 6v8l-3 6-7 2h-10l-5-3-4-5-3-16-4-35-3-10-3-1-5 9-7 28-7 14-5 3h-13l-6-3-6-7-4-13-4-14-6-15-1-2h-3l-3 9-2 17-2 24-3 10-6 9-3 1h-10l-6-2-3-5v-7l5-35 4-21 3-36 3-14 4-6 7-3z" fill="#884FFC"/>
<path transform="translate(1162,231)" d="m0 0h14l6 3 6 5 4 8 1 3v179l-4 10-5 4-9 5h-13l-10-6-5-6-3-12v-170l3-11 7-8z" fill="#884FFC"/>
<path transform="translate(1577,771)" d="m0 0h11l18 5 9 5 13 11 10 13 4 7 3 15v22l-4 19-7 12-12 11-16 8-12 4-6 1h-17l-12-3-17-8-11-11-8-13-5-14-2-9v-17l5-17 7-12 8-10 11-8 13-6zm1 30-9 3-10 6-7 7-5 10-2 12 3 14 5 10 8 7 10 4 5 1h16l10-4 10-10 4-9 1-5v-14l-3-12-6-9-9-6-8-4z" fill="#020103"/>
<path transform="translate(934,774)" d="m0 0h55l13 4 11 7 6 5 6 12 3 11v9l-5 17-6 9-7 6-5 4 1 7 6 7 13 6 6 5 2 5-1 7-4 5-4 2h-8l-14-5-9-6-14-16-14-7-4-1-2 1-1 3-1 17-3 10-6 5h-12l-5-2-4-7-1-5v-17l1-14v-40l-1-24 3-15zm26 28-5 5v12l2 16 1 3 3 1h22l10-6 4-7 1-9-3-8-9-6-4-1z" fill="#884FFC"/>
<path transform="translate(1680,774)" d="m0 0h54l14 4 11 7 7 6 5 12 2 8v13l-4 15-5 8-8 7-5 4 1 7 7 8 12 5 7 8v9l-8 7h-8l-13-5-10-6-7-9-8-8-12-6h-8l-1 3-1 17-2 9-4 5-3 1h-10l-6-2-4-8v-105l2-9zm26 28-4 2-2 7 2 23 2 4 3 1 18 1 9-3 7-6 3-5 1-10-3-6-9-7-4-1z" fill="#020103"/>
<path transform="translate(1141,774)" d="m0 0h53l12 3 13 7 9 9 4 11 2 8v11l-4 16-6 9-7 6-5 3-1 4 3 6 8 7 9 4 7 6 1 2v8l-5 6-4 2h-8l-15-6-8-6-7-8-5-6-15-8h-6l-3 5-1 21-4 7-4 2h-10l-6-2-3-4-1-3v-107l2-8zm25 28-5 5v10l1 14 2 6 4 2 17 1 9-3 9-8 3-9-2-8-5-5-7-4-3-1z" fill="#020104"/>
<path transform="translate(1814,775)" d="m0 0h46l13 4 17 10 12 12 6 13 3 13 1 16-2 18-7 16-8 10-7 7-17 8-12 2-47 1-5-3-4-5v-106l2-10 5-5zm27 22-7 3-2 3v76l1 2h20l10-3 10-7 8-16 1-5v-23l-4-11-6-8-7-6-10-4-6-1z" fill="#020104"/>
<path transform="translate(878,774)" d="m0 0h11l8 3 3 6v8l-3 8-7 3-49 1-4 4v13l1 3 3 1h29l8 3 5 5 2 4-1 7-4 7-7 2-35 1v22h54l6 3 2 5v11l-3 7-2 2-6 1-58 1h-21l-3-3-1-2v-20l1-67 1-35 2-2 8-1z" fill="#884FFC"/>
<path transform="translate(1336,774)" d="m0 0h10l8 3 3 7-1 11-3 5-6 2-49 1-4 4-1 8 1 8 9 2 8-1h14l10 3 5 5 2 3v6l-3 6-4 4-6 1-34 1v19l1 2 52 1 5 2 3 3 1 3v11l-3 7-2 2-8 1-57 1h-19l-3-1-2-4v-19l1-67 1-36 3-2 10-1z" fill="#030205"/>
<path transform="translate(1095,312)" d="m0 0 12 2 7 4 6 9 2 6v124l-5 12-5 5-9 3h-13l-10-5-4-5-3-8-1-8v-114l2-9 4-8 9-6z" fill="#884FFC"/>
<path transform="translate(1974,771)" d="m0 0h15l20 5 8 4 7 7 1 7-9 10-3 2-9-1-11-5-9-2-9 1-7 4-1 2v6l5 6 26 11 16 6 10 8 5 10 3 11-1 10-4 10-7 8-7 6-12 6-8 2h-18l-15-2-21-10-5-6 1-9 7-8 5-4 6 2 12 6 14 3 11-1 8-4 1-1v-6l-6-7-25-11-18-8-5-4-6-8-4-11v-11l3-9 7-8 10-9 12-6z" fill="#020104"/>
<path transform="translate(351,775)" d="m0 0h32l13 2 8 4 10 9 8 13 3 10v12l-4 12-10 13-10 7-6 3-4 1-31 1-6 1-1 32-4 8-2 1h-14l-5-3-3-4-1-3v-21l-1-18v-67l3-8 4-3 3-1zm6 27-5 5v29l5 3h21l7-3 7-5 2-4 1-10-3-7-5-4-9-3z" fill="#884FFC"/>
<path transform="translate(72,776)" d="m0 0h10l6 5 7 18 8 16 9 20 8 23 9 21 5 11v7l-4 5-4 1h-11l-5-3-5-6-5-9-3-1h-34l-10 1-9 12-6 5h-14l-5-5v-8l11-23 8-18 6-18 8-16 8-18 5-14zm2 53-9 17-2 6v6l2 2h23l2-1-1-9-10-20z" fill="#884FFC"/>
<path transform="translate(947,266)" d="m0 0h12l10 5 5 6 4 9v116l-7 14-6 4-7 2h-10l-10-4-6-7-3-8v-118l3-8 9-8z" fill="#884FFC"/>
<path transform="translate(1443,771)" d="m0 0h10l22 6 10 5 2 4-1 6-6 8-6 5-7-1-12-3h-16l-8 3-10 9-6 11-2 7v14l4 13 5 7 8 6 12 3h13l12-3 9-5h7l9 7 4 5 1 4-4 6-7 6-19 8-12 2h-14l-12-2-15-6-9-7-8-8-9-14-4-11-1-6v-26l4-13 11-16 9-10 9-6 12-4 13-3z" fill="#020003"/>
<path transform="translate(629,775)" d="m0 0h81l5 3 3 5v10l-4 8-2 1-50 2-5 3-1 2v13l4 4h10l12-2h9l8 4 4 6-1 9-3 6-7 2-30 1-6 1-1 33-2 13-2 3-3 1h-18l-3-3-1-8-1-47 1-5v-16l-1-10 1-4v-30z" fill="#884FFC"/>
<path transform="translate(456,775)" d="m0 0h15l5 3 1 3v94h14l16-1 22 1 5 4 2 7v11l-4 6-2 1h-73l-5-3-4-8-1-5v-15l1-24v-68l5-5z" fill="#884FFC"/>
<path transform="translate(804,322)" d="m0 0h10l9 3 5 4 6 11v64l-6 10-5 5-9 3h-10l-7-2-9-9-3-7v-64l4-9 7-6z" fill="#884FFC"/>
<path transform="translate(1234,297)" d="m0 0h14l9 6 6 7 2 7v60l-3 10-10 9-8 2h-7l-9-3-8-8-3-8-1-6v-51l2-11 4-6 10-7z" fill="#884FFC"/>
<path transform="translate(752,774)" d="m0 0h15l5 4 1 3 1 17v98l-3 5-2 2-5 1h-11l-6-3-3-8v-18l1-13v-11l-1-19v-51l3-5z" fill="#884FFC"/>
<path transform="translate(571,774)" d="m0 0h14l4 2 2 4 1 9v108l-3 5-7 2h-10l-5-3-4-6-1-3v-10l2-18v-17l-2-23 1-44 6-5z" fill="#884FFC"/>
<path transform="translate(900,968)" d="m0 0 7 1 2 3v69l-4 3h-9l-6-3-9-13-10-16-7-11-2-1v40l-3 3-6 1-7-2-1-2-1-63 3-6 3-2 11 1 4 4 7 13 4 5 7 12 6 7 2 1v-36l4-6z" fill="#040205"/>
<path transform="translate(929,970)" d="m0 0h50l2 3v10l-3 4-33 1-1 5v7h19l7 2 2 3v7l-3 5-24 2v10l32 1 5 5-2 9-1 1-25 1h-26l-2-3v-12l1-17v-16l1-26z" fill="#040206"/>
<path transform="translate(1150,970)" d="m0 0h49l3 4v8l-3 5-32 1-1 10v2h19l6 2 2 4-1 8-3 3-23 1 1 10 6 1 26 1 3 3v9l-2 3-25 1h-26l-1-1v-55l1-19z" fill="#040305"/>
<path transform="translate(776,970)" d="m0 0h49l3 5v7l-3 5-32 1-1 3v8l19 1 6 2 1 2v10l-3 3-12 1h-10l-1 11 33 1 3 3v9l-2 3-25 1h-26l-1-1v-46l1-28z" fill="#030205"/>
<path transform="translate(1070,970)" d="m0 0h11l3 2 1 3v43l4 8 3 2 8 1 7-3 5-6 1-42 1-7 1-1h12l2 2 1 15v25l-2 13-5 10-8 7-8 3h-15l-11-4-6-5-7-12-1-4v-47z" fill="#040206"/>
<path transform="translate(997,970)" d="m0 0h52l3 3 1 2v7l-12 16-9 10-9 11-7 8-1 2 34 1 4 5-1 6-3 3h-52l-3-3v-8l6-10 12-16 7-9 10-12v-1l-30-1-5-6z" fill="#020103"/>
<path transform="translate(1313,969)" d="m0 0h6l5 8 10 22 14 37 1 5-3 3h-10l-4-5-2-5-2-1h-22l-4 1-7 9-9 1-4-2v-6l9-20 6-16 5-10 7-16zm0 31-6 16v2l3 1h12l1-1-1-7-6-11z" fill="#040206"/>
<path transform="translate(746,970)" d="m0 0h11l2 2-2 12-12 36-5 17-4 6-2 2-7 1-7-2-3-4-7-25-8-24-4-13v-6l2-1h11l6 15 8 24 3 8 2-3 9-29z" fill="#040106"/>
<path transform="translate(730,347)" d="m0 0h7l9 3 6 5 4 6 2 7v9l-4 10-8 7-3 2-5 1h-10l-8-4-6-5-4-9v-13l4-10 7-6z" fill="#884FFC"/>
<path transform="translate(1309,347)" d="m0 0h9l10 4 7 8 3 8v11l-5 10-9 7-5 2h-11l-8-4-7-7-3-7v-14l4-8 9-8z" fill="#884FFC"/>
<path transform="translate(1222,970)" d="m0 0h11l2 1 1 41v17l12-2h9l9 1 4 4v10l-2 3h-46l-3-5v-66z" fill="#0A090B"/>
</svg>
